<?xml version="1.0" encoding="UTF-8"?>
<svg id="Calque_1" data-name="Calque 1" xmlns="http://www.w3.org/2000/svg" viewBox="0 0 708.66 488.66">
  <defs>
    <style>
      .cls-1 {
        letter-spacing: .29em;
      }

      .cls-2 {
        letter-spacing: .25em;
      }

      .cls-3 {
        letter-spacing: .35em;
      }

      .cls-4 {
        letter-spacing: .27em;
      }

      .cls-5, .cls-6, .cls-7 {
        fill: #fff;
      }

      .cls-6 {
        font-size: 21.57px;
      }

      .cls-6, .cls-7 {
        font-family: OpenSauceOne-Black, 'Open Sauce One';
        font-weight: 800;
      }

      .cls-8 {
        letter-spacing: .29em;
      }

      .cls-9 {
        letter-spacing: .26em;
      }

      .cls-10 {
        letter-spacing: .34em;
      }

      .cls-11 {
        letter-spacing: .24em;
      }

      .cls-7 {
        font-size: 42.84px;
      }

      .cls-12 {
        letter-spacing: .35em;
      }

      .cls-13 {
        letter-spacing: .33em;
      }
    </style>
  </defs>
  <g>
    <path class="cls-5" d="M392.71,229.08v-32.4s49.07,19.42,54.97,47.99c1.18,5.7,0,23.25,0,23.25,0,0-9.66-19.66-54.97-38.84Z"/>
    <path class="cls-5" d="M392.71,275.17v-39.08s48.81,17.59,54.68,51.34c1.17,6.73,0,28.04,0,28.04,0,0-9.61-22.57-54.68-40.3Z"/>
    <path class="cls-5" d="M392.71,190.58v-29.53s48.36,18.19,54.17,44.28c1.16,5.2,0,21.19,0,21.19,0,0-9.52-18.02-54.17-35.94Z"/>
    <path class="cls-5" d="M392.71,152.83v-25.17s49.07,21.53,54.97,44.49c1.18,4.58,0,18.06,0,18.06,0,0-9.66-16.54-54.97-37.38Z"/>
    <path class="cls-5" d="M405.21,315.47h34.34c-15.46-21.89-46.84-33.21-46.84-33.21v37.69c3.45-2.76,7.76-4.49,12.5-4.49Z"/>
    <g>
      <polygon class="cls-5" points="327.23 297.93 310.27 287.71 310.27 292.27 327.23 297.93"/>
      <polygon class="cls-5" points="363.96 308.86 380.97 312.74 381.26 90.25 310.27 54.39 310.27 120.93 364.19 149.3 363.96 308.86"/>
    </g>
    <polygon class="cls-5" points="286.84 284.46 304.99 290.51 310.27 287.71 310.27 120.93 310.27 120.93 262.78 146.09 262.78 278.96 286.84 284.46"/>
    <path class="cls-5" d="M470.63,266.89c2.51,5.12,3.32,10.12,2.17,14.81-6.09,24.86-64.73,31.85-130.99,15.62-66.25-16.23-115.03-49.53-108.94-74.39.73-2.97,2.22-5.67,4.37-8.12-10.99,4.58-18.18,11.04-20.19,19.27-6.82,27.85,47.83,65.17,122.06,83.35,74.24,18.18,139.95,10.35,146.77-17.5,2.5-10.21-3.29-21.7-15.25-33.05Z"/>
  </g>
  <text class="cls-7" transform="translate(49.25 394.72)"><tspan class="cls-8" x="0" y="0">F</tspan><tspan class="cls-13" x="38.3" y="0">A</tspan><tspan class="cls-10" x="83.2" y="0">C</tspan><tspan class="cls-12" x="131.26" y="0">AM S</tspan><tspan class="cls-4" x="304.38" y="0">T</tspan><tspan class="cls-12" x="342.55" y="0">AIR</tspan><tspan class="cls-1" x="461.56" y="0">W</tspan><tspan class="cls-9" x="522.52" y="0">A</tspan><tspan class="cls-3" x="564.42" y="0">Y</tspan></text>
  <g>
    <text class="cls-6" transform="translate(320.43 429.16)"><tspan class="cls-11" x="0" y="0">T</tspan><tspan class="cls-2" x="18.66" y="0">OGO</tspan></text>
    <g>
      <rect class="cls-5" x="412.63" y="420.52" width="11.3" height="2.54"/>
      <rect class="cls-5" x="299.95" y="420.52" width="11.3" height="2.54"/>
    </g>
  </g>
</svg>