<svg xmlns="http://www.w3.org/2000/svg" viewBox="214 42 284 284" width="32" height="32">
  <rect x="214" y="42" width="284" height="284" fill="#003f7f" rx="28"/>
  <g fill="#fff">
    <path d="M392.71,229.08v-32.4s49.07,19.42,54.97,47.99c1.18,5.7,0,23.25,0,23.25,0,0-9.66-19.66-54.97-38.84Z"/>
    <path d="M392.71,275.17v-39.08s48.81,17.59,54.68,51.34c1.17,6.73,0,28.04,0,28.04,0,0-9.61-22.57-54.68-40.3Z"/>
    <path d="M392.71,190.58v-29.53s48.36,18.19,54.17,44.28c1.16,5.2,0,21.19,0,21.19,0,0-9.52-18.02-54.17-35.94Z"/>
    <path d="M392.71,152.83v-25.17s49.07,21.53,54.97,44.49c1.18,4.58,0,18.06,0,18.06,0,0-9.66-16.54-54.97-37.38Z"/>
    <path d="M405.21,315.47h34.34c-15.46-21.89-46.84-33.21-46.84-33.21v37.69c3.45-2.76,7.76-4.49,12.5-4.49Z"/>
    <polygon points="327.23 297.93 310.27 287.71 310.27 292.27 327.23 297.93"/>
    <polygon points="363.96 308.86 380.97 312.74 381.26 90.25 310.27 54.39 310.27 120.93 364.19 149.3 363.96 308.86"/>
    <polygon points="286.84 284.46 304.99 290.51 310.27 287.71 310.27 120.93 310.27 120.93 262.78 146.09 262.78 278.96 286.84 284.46"/>
    <path d="M470.63,266.89c2.51,5.12,3.32,10.12,2.17,14.81-6.09,24.86-64.73,31.85-130.99,15.62-66.25-16.23-115.03-49.53-108.94-74.39.73-2.97,2.22-5.67,4.37-8.12-10.99,4.58-18.18,11.04-20.19,19.27-6.82,27.85,47.83,65.17,122.06,83.35,74.24,18.18,139.95,10.35,146.77-17.5,2.5-10.21-3.29-21.7-15.25-33.05Z"/>
  </g>
</svg>
